<?xml version="1.0" standalone="no"?><!DOCTYPE svg PUBLIC "-//W3C//DTD SVG 1.1//EN" "http://www.w3.org/Graphics/SVG/1.1/DTD/svg11.dtd"><svg t="1657703474815" class="icon" viewBox="0 0 1024 1024" version="1.1" xmlns="http://www.w3.org/2000/svg" p-id="6311" xmlns:xlink="http://www.w3.org/1999/xlink" width="200" height="200"><defs><style type="text/css">@font-face { font-family: feedback-iconfont; src: url("//at.alicdn.com/t/font_1031158_u69w8yhxdu.woff2?t=1630033759944") format("woff2"), url("//at.alicdn.com/t/font_1031158_u69w8yhxdu.woff?t=1630033759944") format("woff"), url("//at.alicdn.com/t/font_1031158_u69w8yhxdu.ttf?t=1630033759944") format("truetype"); }
</style></defs><path d="M512 0a512 512 0 1 0 512 512A512 512 0 0 0 512 0z m139.946667 281.493333a87.786667 87.786667 0 1 1-87.786667 87.786667 87.786667 87.786667 0 0 1 87.786667-87.786667zM725.333333 672a81.066667 81.066667 0 0 1-80.96 80.96H397.013333A81.066667 81.066667 0 0 1 316.053333 672V381.226667a81.066667 81.066667 0 0 1 80.96-80.96h116.8a10.666667 10.666667 0 0 1 0 21.333333H397.013333a59.733333 59.733333 0 0 0-59.626666 59.626667V672a59.733333 59.733333 0 0 0 59.626666 59.626667h247.786667A59.733333 59.733333 0 0 0 704 672v-87.68a10.666667 10.666667 0 0 1 21.333333 0z m10.666667-136.64H561.813333a4.373333 4.373333 0 0 1-3.946666-6.293333l33.066666-70.4a8.853333 8.853333 0 0 1 12.586667-3.84 90.24 90.24 0 0 0 92.16 2.88 8.746667 8.746667 0 0 1 12.053333 4.053333l32 67.413333a4.373333 4.373333 0 0 1-3.733333 6.186667z" fill="#3299C9" p-id="6312"></path></svg>